<svg width="18" height="18" viewBox="0 0 18 18" fill="none" xmlns="http://www.w3.org/2000/svg">
<rect width="18" height="18" rx="5" fill="url(#paint0_linear_5_7)"/>
<rect x="0.5" y="0.5" width="17" height="17" rx="4.5" stroke="white" stroke-opacity="0.1"/>
<g clip-path="url(#clip0_5_7)">
<path d="M8.42442 4.9367C8.6056 4.35443 9.3945 4.35443 9.57569 4.9367L10.2231 7.0171C10.3041 7.2775 10.5365 7.4538 10.7987 7.4538H12.8936C13.48 7.4538 13.7238 8.23724 13.2494 8.5971L11.5546 9.88286C11.3424 10.0438 11.2536 10.3291 11.3347 10.5895L11.9821 12.6699C12.1632 13.2521 11.525 13.7363 11.0506 13.3764L9.35581 12.0907C9.14368 11.9297 8.85643 11.9297 8.64429 12.0907L6.94946 13.3764C6.47511 13.7363 5.83687 13.2521 6.01806 12.6699L6.66543 10.5895C6.74645 10.3291 6.65768 10.0438 6.44555 9.88286L4.75072 8.5971C4.27637 8.23724 4.52015 7.4538 5.10648 7.4538H7.20141C7.46363 7.4538 7.69601 7.2775 7.77705 7.0171L8.42442 4.9367Z" fill="white"/>
</g>
<defs>
<linearGradient id="paint0_linear_5_7" x1="18" y1="7.37368e-07" x2="-2.33335" y2="14.7927" gradientUnits="userSpaceOnUse">
<stop stop-color="#753EB2"/>
<stop offset="1" stop-color="#4539F1"/>
</linearGradient>
<clipPath id="clip0_5_7">
<rect x="4.05884" y="3.88232" width="10.0588" height="10.0588" rx="3" fill="white"/>
</clipPath>
</defs>
</svg>
